<svg width="20" height="10" viewBox="0 0 20 10" fill="none" xmlns="http://www.w3.org/2000/svg">
<path d="M0.217558 5.53063L4.15756 9.53063C4.30756 9.68063 4.49756 9.75063 4.68756 9.75063C4.87756 9.75063 5.06756 9.68063 5.21756 9.53063C5.51756 9.24063 5.51756 8.77063 5.22756 8.47063L2.53756 5.75063H19.2476C19.6576 5.75063 19.9976 5.41063 19.9976 5.00063C19.9976 4.59063 19.6576 4.25063 19.2476 4.25063H2.53756L5.22756 1.53063C5.51756 1.23063 5.51756 0.760633 5.21756 0.470633C4.92756 0.170633 4.44756 0.180633 4.15756 0.470633L0.217558 4.47063C-0.072443 4.77063 -0.072443 5.23063 0.217558 5.53063Z" fill="#121331"/>
</svg>
