<?xml version="1.0" encoding="iso-8859-1"?>
<!-- Uploaded to: SVG Repo, www.svgrepo.com, Generator: SVG Repo Mixer Tools -->
<!DOCTYPE svg PUBLIC "-//W3C//DTD SVG 1.1//EN" "http://www.w3.org/Graphics/SVG/1.1/DTD/svg11.dtd">
<svg fill="#000000" version="1.1" id="Capa_1" xmlns="http://www.w3.org/2000/svg" xmlns:xlink="http://www.w3.org/1999/xlink" 
	 width="800px" height="800px" viewBox="0 0 85.16 85.16" xml:space="preserve"
	>
<g>
	<path d="M72.697,12.458c-16.611-16.611-43.63-16.611-60.24,0c-16.604,16.611-16.604,43.636,0,60.243
		c16.61,16.611,43.637,16.611,60.24,0C89.309,56.094,89.309,29.066,72.697,12.458z M19.129,19.128
		c10.917-10.92,27.617-12.618,40.335-5.096L14.037,59.468C6.506,46.749,8.205,30.048,19.129,19.128z M66.024,66.029
		c-10.842,10.842-27.381,12.587-40.065,5.25l45.314-45.316C78.621,38.648,76.873,55.187,66.024,66.029z"/>
</g>
</svg>