<svg width="8" height="7" viewBox="0 0 8 7" fill="none" xmlns="http://www.w3.org/2000/svg">
<path d="M1.48311 3.15022C1.8692 3.15022 2.18311 2.83631 2.18311 2.45022C2.18311 2.06412 1.8692 1.75022 1.48311 1.75022C1.09701 1.75022 0.783105 2.06412 0.783105 2.45022C0.783105 2.83631 1.09701 3.15022 1.48311 3.15022ZM6.38311 3.15022C6.7692 3.15022 7.08311 2.83631 7.08311 2.45022C7.08311 2.06412 6.7692 1.75022 6.38311 1.75022C5.99701 1.75022 5.68311 2.06412 5.68311 2.45022C5.68311 2.83631 5.99701 3.15022 6.38311 3.15022ZM6.73311 3.50022H6.03311C5.84061 3.50022 5.6667 3.57787 5.53982 3.70365C5.98061 3.94537 6.29342 4.38178 6.36123 4.90022H7.08311C7.2767 4.90022 7.43311 4.74381 7.43311 4.55022V4.20022C7.43311 3.81412 7.1192 3.50022 6.73311 3.50022ZM3.93311 3.50022C4.61014 3.50022 5.15811 2.95225 5.15811 2.27522C5.15811 1.59819 4.61014 1.05022 3.93311 1.05022C3.25607 1.05022 2.70811 1.59819 2.70811 2.27522C2.70811 2.95225 3.25607 3.50022 3.93311 3.50022ZM4.77311 3.85022H4.68232C4.45482 3.95959 4.20217 4.02522 3.93311 4.02522C3.66404 4.02522 3.41248 3.95959 3.18389 3.85022H3.09311C2.39748 3.85022 1.83311 4.41459 1.83311 5.11022V5.42522C1.83311 5.71506 2.06826 5.95022 2.35811 5.95022H5.50811C5.79795 5.95022 6.03311 5.71506 6.03311 5.42522V5.11022C6.03311 4.41459 5.46873 3.85022 4.77311 3.85022ZM2.32639 3.70365C2.19951 3.57787 2.02561 3.50022 1.83311 3.50022H1.13311C0.747012 3.50022 0.433105 3.81412 0.433105 4.20022V4.55022C0.433105 4.74381 0.589512 4.90022 0.783105 4.90022H1.50389C1.57279 4.38178 1.88561 3.94537 2.32639 3.70365Z" fill="white"/>
</svg>
