<svg width="8" height="8" viewBox="0 0 8 8" fill="none" xmlns="http://www.w3.org/2000/svg">
<path d="M2.74927 6.9996C3.02541 6.9996 3.24927 6.77575 3.24927 6.4996C3.24927 6.22346 3.02541 5.9996 2.74927 5.9996C2.47313 5.9996 2.24927 6.22346 2.24927 6.4996C2.24927 6.77575 2.47313 6.9996 2.74927 6.9996Z" fill="white"/>
<path d="M6.24939 6.9996C6.52553 6.9996 6.74939 6.77575 6.74939 6.4996C6.74939 6.22346 6.52553 5.9996 6.24939 5.9996C5.97325 5.9996 5.74939 6.22346 5.74939 6.4996C5.74939 6.77575 5.97325 6.9996 6.24939 6.9996Z" fill="white"/>
<path d="M7.13701 1.88679C7.10189 1.84383 7.05764 1.80923 7.00748 1.7855C6.95732 1.76177 6.9025 1.74951 6.84701 1.7496H2.09154L1.99576 1.20617C1.98555 1.14828 1.95527 1.09584 1.91023 1.05807C1.8652 1.02029 1.80829 0.999591 1.74951 0.999603H0.749512C0.683208 0.999603 0.619619 1.02594 0.572735 1.07283C0.525851 1.11971 0.499512 1.1833 0.499512 1.2496C0.499512 1.31591 0.525851 1.3795 0.572735 1.42638C0.619619 1.47326 0.683208 1.4996 0.749512 1.4996H1.53982L2.25326 5.54304C2.26347 5.60093 2.29376 5.65336 2.33879 5.69114C2.38383 5.72892 2.44073 5.74962 2.49951 5.7496H6.49951C6.56582 5.7496 6.6294 5.72326 6.67629 5.67638C6.72317 5.6295 6.74951 5.56591 6.74951 5.4996C6.74951 5.4333 6.72317 5.36971 6.67629 5.32283C6.6294 5.27594 6.56582 5.2496 6.49951 5.2496H2.7092L2.62107 4.7496H6.39701C6.48371 4.74949 6.56771 4.71943 6.63479 4.66451C6.70187 4.60958 6.74792 4.53317 6.76514 4.4482L7.21514 2.1982C7.22598 2.14374 7.2246 2.08756 7.21109 2.03371C7.19758 1.97986 7.17227 1.92968 7.13701 1.88679Z" fill="white"/>
</svg>
